<mxfile host="www.draw.io" modified="2020-01-22T13:51:34.824Z" agent="Mozilla/5.0 (Windows NT 10.0; Win64; x64) AppleWebKit/537.36 (KHTML, like Gecko) Chrome/79.0.3945.117 Safari/537.36" etag="Mp7OvoGMFmMLfQHHzQzp" version="12.5.5" type="github">
  <diagram id="tFgHYZZSZRXZMGEs1DrS" name="Page-1">
    <mxGraphModel dx="4958" dy="3858" grid="1" gridSize="9" guides="1" tooltips="1" connect="1" arrows="1" fold="1" page="0" pageScale="1" pageWidth="850" pageHeight="1100" math="0" shadow="0">
      <root>
        <mxCell id="0"/>
        <mxCell id="1" parent="0"/>
        <mxCell id="ln4YnRmYRfvOp8-9dpnj-1" style="edgeStyle=orthogonalEdgeStyle;rounded=0;orthogonalLoop=1;jettySize=auto;html=1;exitX=0.5;exitY=1;exitDx=0;exitDy=0;entryX=0.5;entryY=0;entryDx=0;entryDy=0;" parent="1" source="ln4YnRmYRfvOp8-9dpnj-3" target="ln4YnRmYRfvOp8-9dpnj-5" edge="1">
          <mxGeometry relative="1" as="geometry"/>
        </mxCell>
        <mxCell id="ln4YnRmYRfvOp8-9dpnj-2" style="edgeStyle=orthogonalEdgeStyle;rounded=0;orthogonalLoop=1;jettySize=auto;html=1;exitX=0.5;exitY=1;exitDx=0;exitDy=0;entryX=0.5;entryY=0;entryDx=0;entryDy=0;" parent="1" source="ln4YnRmYRfvOp8-9dpnj-3" target="ln4YnRmYRfvOp8-9dpnj-6" edge="1">
          <mxGeometry relative="1" as="geometry"/>
        </mxCell>
        <mxCell id="ln4YnRmYRfvOp8-9dpnj-3" value="Display User Menu" style="rounded=1;whiteSpace=wrap;html=1;" parent="1" vertex="1">
          <mxGeometry x="345" y="40" width="120" height="60" as="geometry"/>
        </mxCell>
        <mxCell id="ln4YnRmYRfvOp8-9dpnj-4" style="edgeStyle=orthogonalEdgeStyle;rounded=0;orthogonalLoop=1;jettySize=auto;html=1;exitX=0.5;exitY=1;exitDx=0;exitDy=0;entryX=0.5;entryY=0;entryDx=0;entryDy=0;" parent="1" source="ln4YnRmYRfvOp8-9dpnj-5" target="ln4YnRmYRfvOp8-9dpnj-8" edge="1">
          <mxGeometry relative="1" as="geometry"/>
        </mxCell>
        <mxCell id="ln4YnRmYRfvOp8-9dpnj-5" value="Create New Schedule" style="rounded=1;whiteSpace=wrap;html=1;" parent="1" vertex="1">
          <mxGeometry x="185" y="150" width="120" height="60" as="geometry"/>
        </mxCell>
        <mxCell id="_xfbIV2_GkmlUteq1tt2-15" style="edgeStyle=orthogonalEdgeStyle;rounded=0;orthogonalLoop=1;jettySize=auto;html=1;entryX=0.5;entryY=0;entryDx=0;entryDy=0;" edge="1" parent="1" source="ln4YnRmYRfvOp8-9dpnj-6" target="_xfbIV2_GkmlUteq1tt2-14">
          <mxGeometry relative="1" as="geometry"/>
        </mxCell>
        <mxCell id="ln4YnRmYRfvOp8-9dpnj-6" value="Open Existing Schedule" style="rounded=1;whiteSpace=wrap;html=1;" parent="1" vertex="1">
          <mxGeometry x="495" y="150" width="120" height="60" as="geometry"/>
        </mxCell>
        <mxCell id="ln4YnRmYRfvOp8-9dpnj-7" style="edgeStyle=orthogonalEdgeStyle;rounded=0;orthogonalLoop=1;jettySize=auto;html=1;exitX=1;exitY=0.5;exitDx=0;exitDy=0;entryX=0;entryY=0.5;entryDx=0;entryDy=0;" parent="1" source="ln4YnRmYRfvOp8-9dpnj-8" target="ln4YnRmYRfvOp8-9dpnj-10" edge="1">
          <mxGeometry relative="1" as="geometry"/>
        </mxCell>
        <mxCell id="ln4YnRmYRfvOp8-9dpnj-8" value="Asks for the number of users" style="rounded=1;whiteSpace=wrap;html=1;" parent="1" vertex="1">
          <mxGeometry x="45" y="250" width="110" height="60" as="geometry"/>
        </mxCell>
        <mxCell id="ln4YnRmYRfvOp8-9dpnj-9" style="edgeStyle=orthogonalEdgeStyle;rounded=0;orthogonalLoop=1;jettySize=auto;html=1;" parent="1" source="ln4YnRmYRfvOp8-9dpnj-10" target="ln4YnRmYRfvOp8-9dpnj-12" edge="1">
          <mxGeometry relative="1" as="geometry"/>
        </mxCell>
        <mxCell id="ln4YnRmYRfvOp8-9dpnj-10" value="Asks for number of parks playing in" style="rounded=1;whiteSpace=wrap;html=1;" parent="1" vertex="1">
          <mxGeometry x="175" y="250" width="110" height="60" as="geometry"/>
        </mxCell>
        <mxCell id="ln4YnRmYRfvOp8-9dpnj-11" style="edgeStyle=orthogonalEdgeStyle;rounded=0;orthogonalLoop=1;jettySize=auto;html=1;entryX=0.5;entryY=0;entryDx=0;entryDy=0;" parent="1" source="ln4YnRmYRfvOp8-9dpnj-12" target="ln4YnRmYRfvOp8-9dpnj-24" edge="1">
          <mxGeometry relative="1" as="geometry"/>
        </mxCell>
        <mxCell id="ln4YnRmYRfvOp8-9dpnj-12" value="Asks for a file name&lt;br&gt;" style="rounded=1;whiteSpace=wrap;html=1;" parent="1" vertex="1">
          <mxGeometry x="305" y="250" width="110" height="60" as="geometry"/>
        </mxCell>
        <mxCell id="ln4YnRmYRfvOp8-9dpnj-13" style="edgeStyle=orthogonalEdgeStyle;rounded=0;orthogonalLoop=1;jettySize=auto;html=1;entryX=1;entryY=0.5;entryDx=0;entryDy=0;" parent="1" source="ln4YnRmYRfvOp8-9dpnj-14" target="ln4YnRmYRfvOp8-9dpnj-16" edge="1">
          <mxGeometry relative="1" as="geometry"/>
        </mxCell>
        <mxCell id="ln4YnRmYRfvOp8-9dpnj-14" value="Loop 1&lt;br&gt;Reads File" style="rounded=1;whiteSpace=wrap;html=1;" parent="1" vertex="1">
          <mxGeometry x="302.25" y="450" width="115" height="60" as="geometry"/>
        </mxCell>
        <mxCell id="ln4YnRmYRfvOp8-9dpnj-15" style="edgeStyle=orthogonalEdgeStyle;rounded=0;orthogonalLoop=1;jettySize=auto;html=1;" parent="1" source="ln4YnRmYRfvOp8-9dpnj-16" target="ln4YnRmYRfvOp8-9dpnj-18" edge="1">
          <mxGeometry relative="1" as="geometry"/>
        </mxCell>
        <mxCell id="ln4YnRmYRfvOp8-9dpnj-16" value="Creates variable and stores team names" style="rounded=1;whiteSpace=wrap;html=1;" parent="1" vertex="1">
          <mxGeometry x="169.75" y="450" width="115" height="60" as="geometry"/>
        </mxCell>
        <mxCell id="ln4YnRmYRfvOp8-9dpnj-17" style="edgeStyle=orthogonalEdgeStyle;rounded=0;orthogonalLoop=1;jettySize=auto;html=1;entryX=0.5;entryY=0;entryDx=0;entryDy=0;" parent="1" source="ln4YnRmYRfvOp8-9dpnj-18" target="ln4YnRmYRfvOp8-9dpnj-20" edge="1">
          <mxGeometry relative="1" as="geometry"/>
        </mxCell>
        <mxCell id="ln4YnRmYRfvOp8-9dpnj-18" value="Creates variable to store paramaters" style="rounded=1;whiteSpace=wrap;html=1;" parent="1" vertex="1">
          <mxGeometry x="42.25" y="450" width="110" height="60" as="geometry"/>
        </mxCell>
        <mxCell id="ln4YnRmYRfvOp8-9dpnj-19" style="edgeStyle=orthogonalEdgeStyle;rounded=0;orthogonalLoop=1;jettySize=auto;html=1;exitX=1;exitY=0.5;exitDx=0;exitDy=0;entryX=0;entryY=0.5;entryDx=0;entryDy=0;" parent="1" source="ln4YnRmYRfvOp8-9dpnj-20" target="ln4YnRmYRfvOp8-9dpnj-21" edge="1">
          <mxGeometry relative="1" as="geometry"/>
        </mxCell>
        <mxCell id="ln4YnRmYRfvOp8-9dpnj-20" value="Create object with paramaters" style="rounded=1;whiteSpace=wrap;html=1;" parent="1" vertex="1">
          <mxGeometry x="40.25" y="530" width="114" height="60" as="geometry"/>
        </mxCell>
        <mxCell id="ln4YnRmYRfvOp8-9dpnj-26" style="edgeStyle=orthogonalEdgeStyle;rounded=0;orthogonalLoop=1;jettySize=auto;html=1;exitX=0.5;exitY=0;exitDx=0;exitDy=0;entryX=0.5;entryY=1;entryDx=0;entryDy=0;" parent="1" source="ln4YnRmYRfvOp8-9dpnj-21" target="ln4YnRmYRfvOp8-9dpnj-14" edge="1">
          <mxGeometry relative="1" as="geometry"/>
        </mxCell>
        <mxCell id="ln4YnRmYRfvOp8-9dpnj-27" style="edgeStyle=orthogonalEdgeStyle;rounded=0;orthogonalLoop=1;jettySize=auto;html=1;exitX=0.5;exitY=1;exitDx=0;exitDy=0;entryX=0.5;entryY=0;entryDx=0;entryDy=0;" parent="1" source="ln4YnRmYRfvOp8-9dpnj-21" target="ln4YnRmYRfvOp8-9dpnj-23" edge="1">
          <mxGeometry relative="1" as="geometry"/>
        </mxCell>
        <mxCell id="ln4YnRmYRfvOp8-9dpnj-21" value="Array of number of teams." style="rounded=1;whiteSpace=wrap;html=1;" parent="1" vertex="1">
          <mxGeometry x="299.75" y="530" width="120" height="60" as="geometry"/>
        </mxCell>
        <mxCell id="ln4YnRmYRfvOp8-9dpnj-22" value="Sends to Array&lt;br&gt;" style="text;html=1;align=center;verticalAlign=middle;resizable=0;points=[];;autosize=1;" parent="1" vertex="1">
          <mxGeometry x="175.25" y="540" width="90" height="20" as="geometry"/>
        </mxCell>
        <mxCell id="ln4YnRmYRfvOp8-9dpnj-29" style="edgeStyle=orthogonalEdgeStyle;rounded=0;orthogonalLoop=1;jettySize=auto;html=1;exitX=0;exitY=0.5;exitDx=0;exitDy=0;" parent="1" source="ln4YnRmYRfvOp8-9dpnj-23" target="ln4YnRmYRfvOp8-9dpnj-28" edge="1">
          <mxGeometry relative="1" as="geometry"/>
        </mxCell>
        <mxCell id="ln4YnRmYRfvOp8-9dpnj-41" style="edgeStyle=orthogonalEdgeStyle;rounded=0;orthogonalLoop=1;jettySize=auto;html=1;exitX=0.5;exitY=1;exitDx=0;exitDy=0;entryX=1;entryY=0.5;entryDx=0;entryDy=0;" parent="1" source="ln4YnRmYRfvOp8-9dpnj-23" target="ln4YnRmYRfvOp8-9dpnj-40" edge="1">
          <mxGeometry relative="1" as="geometry"/>
        </mxCell>
        <mxCell id="ln4YnRmYRfvOp8-9dpnj-74" style="edgeStyle=orthogonalEdgeStyle;rounded=0;orthogonalLoop=1;jettySize=auto;html=1;exitX=0.5;exitY=1;exitDx=0;exitDy=0;entryX=0.5;entryY=0;entryDx=0;entryDy=0;" parent="1" source="ln4YnRmYRfvOp8-9dpnj-23" target="ln4YnRmYRfvOp8-9dpnj-73" edge="1">
          <mxGeometry relative="1" as="geometry"/>
        </mxCell>
        <mxCell id="ln4YnRmYRfvOp8-9dpnj-23" value="Loop 1&amp;nbsp;&lt;br&gt;Loops for # of teams input" style="rounded=1;whiteSpace=wrap;html=1;" parent="1" vertex="1">
          <mxGeometry x="299.75" y="640" width="120" height="60" as="geometry"/>
        </mxCell>
        <mxCell id="ln4YnRmYRfvOp8-9dpnj-25" style="edgeStyle=orthogonalEdgeStyle;rounded=0;orthogonalLoop=1;jettySize=auto;html=1;exitX=0.5;exitY=1;exitDx=0;exitDy=0;entryX=0.5;entryY=0;entryDx=0;entryDy=0;" parent="1" source="ln4YnRmYRfvOp8-9dpnj-24" target="ln4YnRmYRfvOp8-9dpnj-14" edge="1">
          <mxGeometry relative="1" as="geometry"/>
        </mxCell>
        <mxCell id="ln4YnRmYRfvOp8-9dpnj-24" value="Stores name as a variable to use to store file" style="rounded=1;whiteSpace=wrap;html=1;" parent="1" vertex="1">
          <mxGeometry x="300" y="350" width="120" height="60" as="geometry"/>
        </mxCell>
        <mxCell id="ln4YnRmYRfvOp8-9dpnj-48" style="edgeStyle=orthogonalEdgeStyle;rounded=0;orthogonalLoop=1;jettySize=auto;html=1;exitX=0;exitY=0.5;exitDx=0;exitDy=0;entryX=1;entryY=0.5;entryDx=0;entryDy=0;" parent="1" source="ln4YnRmYRfvOp8-9dpnj-28" target="ln4YnRmYRfvOp8-9dpnj-43" edge="1">
          <mxGeometry relative="1" as="geometry"/>
        </mxCell>
        <mxCell id="ln4YnRmYRfvOp8-9dpnj-28" value="Decrease the array size to match actual" style="rounded=1;whiteSpace=wrap;html=1;" parent="1" vertex="1">
          <mxGeometry x="40.25" y="640" width="120" height="60" as="geometry"/>
        </mxCell>
        <mxCell id="ln4YnRmYRfvOp8-9dpnj-30" value="If # of teams&lt;br&gt;&amp;nbsp;input &amp;lt; original #" style="text;html=1;align=center;verticalAlign=middle;resizable=0;points=[];autosize=1;" parent="1" vertex="1">
          <mxGeometry x="175.25" y="640" width="110" height="30" as="geometry"/>
        </mxCell>
        <mxCell id="ln4YnRmYRfvOp8-9dpnj-47" style="edgeStyle=orthogonalEdgeStyle;rounded=0;orthogonalLoop=1;jettySize=auto;html=1;exitX=0;exitY=0.5;exitDx=0;exitDy=0;entryX=1;entryY=0.5;entryDx=0;entryDy=0;" parent="1" source="ln4YnRmYRfvOp8-9dpnj-40" target="ln4YnRmYRfvOp8-9dpnj-46" edge="1">
          <mxGeometry relative="1" as="geometry"/>
        </mxCell>
        <mxCell id="ln4YnRmYRfvOp8-9dpnj-40" value="Increase array size to match actual" style="rounded=1;whiteSpace=wrap;html=1;" parent="1" vertex="1">
          <mxGeometry x="40" y="720" width="120" height="60" as="geometry"/>
        </mxCell>
        <mxCell id="ln4YnRmYRfvOp8-9dpnj-42" value="If # of teams&amp;nbsp;&lt;br&gt;input &amp;gt; original #" style="text;html=1;align=center;verticalAlign=middle;resizable=0;points=[];autosize=1;" parent="1" vertex="1">
          <mxGeometry x="193" y="718" width="100" height="30" as="geometry"/>
        </mxCell>
        <mxCell id="ln4YnRmYRfvOp8-9dpnj-55" style="edgeStyle=orthogonalEdgeStyle;rounded=0;orthogonalLoop=1;jettySize=auto;html=1;exitX=0.5;exitY=0;exitDx=0;exitDy=0;entryX=0.25;entryY=0;entryDx=0;entryDy=0;" parent="1" source="ln4YnRmYRfvOp8-9dpnj-43" target="ln4YnRmYRfvOp8-9dpnj-23" edge="1">
          <mxGeometry relative="1" as="geometry"/>
        </mxCell>
        <mxCell id="ln4YnRmYRfvOp8-9dpnj-43" value="Tells user there has been error actual number of teams input is x" style="rounded=1;whiteSpace=wrap;html=1;" parent="1" vertex="1">
          <mxGeometry x="-153" y="640" width="120" height="60" as="geometry"/>
        </mxCell>
        <mxCell id="ln4YnRmYRfvOp8-9dpnj-54" style="edgeStyle=orthogonalEdgeStyle;rounded=0;orthogonalLoop=1;jettySize=auto;html=1;exitX=0;exitY=0.5;exitDx=0;exitDy=0;entryX=0.25;entryY=0;entryDx=0;entryDy=0;" parent="1" source="ln4YnRmYRfvOp8-9dpnj-46" target="ln4YnRmYRfvOp8-9dpnj-23" edge="1">
          <mxGeometry relative="1" as="geometry"/>
        </mxCell>
        <mxCell id="ln4YnRmYRfvOp8-9dpnj-46" value="Tells user there has been error actual number of teams input is x" style="rounded=1;whiteSpace=wrap;html=1;" parent="1" vertex="1">
          <mxGeometry x="-153" y="720" width="120" height="60" as="geometry"/>
        </mxCell>
        <mxCell id="ln4YnRmYRfvOp8-9dpnj-60" value="Correct #&lt;br&gt;input" style="text;html=1;align=center;verticalAlign=middle;resizable=0;points=[];autosize=1;" parent="1" vertex="1">
          <mxGeometry x="366" y="765" width="63" height="36" as="geometry"/>
        </mxCell>
        <mxCell id="ln4YnRmYRfvOp8-9dpnj-61" style="edgeStyle=orthogonalEdgeStyle;rounded=0;orthogonalLoop=1;jettySize=auto;html=1;exitX=0;exitY=0.5;exitDx=0;exitDy=0;" parent="1" source="ln4YnRmYRfvOp8-9dpnj-63" target="ln4YnRmYRfvOp8-9dpnj-65" edge="1">
          <mxGeometry relative="1" as="geometry"/>
        </mxCell>
        <mxCell id="ln4YnRmYRfvOp8-9dpnj-62" style="edgeStyle=orthogonalEdgeStyle;rounded=0;orthogonalLoop=1;jettySize=auto;html=1;exitX=0.5;exitY=1;exitDx=0;exitDy=0;entryX=1;entryY=0.5;entryDx=0;entryDy=0;" parent="1" source="ln4YnRmYRfvOp8-9dpnj-63" target="ln4YnRmYRfvOp8-9dpnj-68" edge="1">
          <mxGeometry relative="1" as="geometry"/>
        </mxCell>
        <mxCell id="fP2JDEJb-xHG-UvWObpS-92" style="edgeStyle=orthogonalEdgeStyle;rounded=0;orthogonalLoop=1;jettySize=auto;html=1;exitX=0.75;exitY=1;exitDx=0;exitDy=0;entryX=0.5;entryY=0;entryDx=0;entryDy=0;" parent="1" source="ln4YnRmYRfvOp8-9dpnj-63" target="ln4YnRmYRfvOp8-9dpnj-80" edge="1">
          <mxGeometry relative="1" as="geometry"/>
        </mxCell>
        <mxCell id="ln4YnRmYRfvOp8-9dpnj-63" value="Loop 2&lt;br&gt;Loops for # of parks input" style="rounded=1;whiteSpace=wrap;html=1;" parent="1" vertex="1">
          <mxGeometry x="300" y="984" width="120" height="60" as="geometry"/>
        </mxCell>
        <mxCell id="ln4YnRmYRfvOp8-9dpnj-64" style="edgeStyle=orthogonalEdgeStyle;rounded=0;orthogonalLoop=1;jettySize=auto;html=1;exitX=0;exitY=0.5;exitDx=0;exitDy=0;entryX=1;entryY=0.5;entryDx=0;entryDy=0;" parent="1" source="ln4YnRmYRfvOp8-9dpnj-65" target="ln4YnRmYRfvOp8-9dpnj-70" edge="1">
          <mxGeometry relative="1" as="geometry"/>
        </mxCell>
        <mxCell id="ln4YnRmYRfvOp8-9dpnj-65" value="Decrease the array size to match actual" style="rounded=1;whiteSpace=wrap;html=1;" parent="1" vertex="1">
          <mxGeometry x="40.5" y="984" width="120" height="60" as="geometry"/>
        </mxCell>
        <mxCell id="ln4YnRmYRfvOp8-9dpnj-66" value="If # of parks&lt;br&gt;&amp;nbsp;input &amp;lt; original #" style="text;html=1;align=center;verticalAlign=middle;resizable=0;points=[];autosize=1;" parent="1" vertex="1">
          <mxGeometry x="176.5" y="981" width="108" height="36" as="geometry"/>
        </mxCell>
        <mxCell id="ln4YnRmYRfvOp8-9dpnj-67" style="edgeStyle=orthogonalEdgeStyle;rounded=0;orthogonalLoop=1;jettySize=auto;html=1;exitX=0;exitY=0.5;exitDx=0;exitDy=0;entryX=1;entryY=0.5;entryDx=0;entryDy=0;" parent="1" source="ln4YnRmYRfvOp8-9dpnj-68" target="ln4YnRmYRfvOp8-9dpnj-71" edge="1">
          <mxGeometry relative="1" as="geometry"/>
        </mxCell>
        <mxCell id="ln4YnRmYRfvOp8-9dpnj-68" value="Increase array size to match actual" style="rounded=1;whiteSpace=wrap;html=1;" parent="1" vertex="1">
          <mxGeometry x="40.25" y="1064" width="120" height="60" as="geometry"/>
        </mxCell>
        <mxCell id="ln4YnRmYRfvOp8-9dpnj-69" value="If # of teams&amp;nbsp;&lt;br&gt;input &amp;gt; original #" style="text;html=1;align=center;verticalAlign=middle;resizable=0;points=[];autosize=1;" parent="1" vertex="1">
          <mxGeometry x="193.25" y="1062" width="100" height="30" as="geometry"/>
        </mxCell>
        <mxCell id="_xfbIV2_GkmlUteq1tt2-9" style="edgeStyle=orthogonalEdgeStyle;rounded=0;orthogonalLoop=1;jettySize=auto;html=1;exitX=0.5;exitY=0;exitDx=0;exitDy=0;entryX=0.25;entryY=0;entryDx=0;entryDy=0;" edge="1" parent="1" source="ln4YnRmYRfvOp8-9dpnj-70" target="ln4YnRmYRfvOp8-9dpnj-63">
          <mxGeometry relative="1" as="geometry"/>
        </mxCell>
        <mxCell id="ln4YnRmYRfvOp8-9dpnj-70" value="Tells user there has been error actual number of teams input is x" style="rounded=1;whiteSpace=wrap;html=1;" parent="1" vertex="1">
          <mxGeometry x="-152.75" y="984" width="120" height="60" as="geometry"/>
        </mxCell>
        <mxCell id="ln4YnRmYRfvOp8-9dpnj-71" value="Tells user there has been error actual number of teams input is x" style="rounded=1;whiteSpace=wrap;html=1;" parent="1" vertex="1">
          <mxGeometry x="-152.75" y="1064" width="120" height="60" as="geometry"/>
        </mxCell>
        <mxCell id="ln4YnRmYRfvOp8-9dpnj-76" style="edgeStyle=orthogonalEdgeStyle;rounded=0;orthogonalLoop=1;jettySize=auto;html=1;exitX=0.5;exitY=1;exitDx=0;exitDy=0;entryX=0.5;entryY=0;entryDx=0;entryDy=0;" parent="1" source="ln4YnRmYRfvOp8-9dpnj-73" target="ln4YnRmYRfvOp8-9dpnj-75" edge="1">
          <mxGeometry relative="1" as="geometry"/>
        </mxCell>
        <mxCell id="ln4YnRmYRfvOp8-9dpnj-73" value="Creates Array for # of parks being used&amp;nbsp;" style="rounded=1;whiteSpace=wrap;html=1;" parent="1" vertex="1">
          <mxGeometry x="299.75" y="819" width="120" height="60" as="geometry"/>
        </mxCell>
        <mxCell id="ln4YnRmYRfvOp8-9dpnj-77" style="edgeStyle=orthogonalEdgeStyle;rounded=0;orthogonalLoop=1;jettySize=auto;html=1;exitX=0.5;exitY=1;exitDx=0;exitDy=0;entryX=0.5;entryY=0;entryDx=0;entryDy=0;" parent="1" source="ln4YnRmYRfvOp8-9dpnj-75" target="ln4YnRmYRfvOp8-9dpnj-63" edge="1">
          <mxGeometry relative="1" as="geometry"/>
        </mxCell>
        <mxCell id="ln4YnRmYRfvOp8-9dpnj-75" value="Loop 2&lt;br&gt;Insert team name for each slot in array" style="rounded=1;whiteSpace=wrap;html=1;" parent="1" vertex="1">
          <mxGeometry x="300" y="900" width="120" height="60" as="geometry"/>
        </mxCell>
        <mxCell id="ln4YnRmYRfvOp8-9dpnj-82" style="edgeStyle=orthogonalEdgeStyle;rounded=0;orthogonalLoop=1;jettySize=auto;html=1;" parent="1" source="ln4YnRmYRfvOp8-9dpnj-80" target="ln4YnRmYRfvOp8-9dpnj-81" edge="1">
          <mxGeometry relative="1" as="geometry"/>
        </mxCell>
        <mxCell id="fP2JDEJb-xHG-UvWObpS-3" style="edgeStyle=orthogonalEdgeStyle;rounded=0;orthogonalLoop=1;jettySize=auto;html=1;exitX=0.5;exitY=1;exitDx=0;exitDy=0;" parent="1" source="ln4YnRmYRfvOp8-9dpnj-80" target="ln4YnRmYRfvOp8-9dpnj-84" edge="1">
          <mxGeometry relative="1" as="geometry"/>
        </mxCell>
        <mxCell id="ln4YnRmYRfvOp8-9dpnj-80" value="Loop 3&lt;br&gt;Loops for number of matches" style="rounded=1;whiteSpace=wrap;html=1;" parent="1" vertex="1">
          <mxGeometry x="300" y="1269" width="120" height="60" as="geometry"/>
        </mxCell>
        <mxCell id="fP2JDEJb-xHG-UvWObpS-2" style="edgeStyle=orthogonalEdgeStyle;rounded=0;orthogonalLoop=1;jettySize=auto;html=1;exitX=0;exitY=0.5;exitDx=0;exitDy=0;entryX=0.25;entryY=0;entryDx=0;entryDy=0;" parent="1" source="ln4YnRmYRfvOp8-9dpnj-81" target="ln4YnRmYRfvOp8-9dpnj-80" edge="1">
          <mxGeometry relative="1" as="geometry"/>
        </mxCell>
        <mxCell id="ln4YnRmYRfvOp8-9dpnj-81" value="Call Randomization class with parameters array teams, array parks, number of games" style="rounded=1;whiteSpace=wrap;html=1;" parent="1" vertex="1">
          <mxGeometry x="81" y="1267.5" width="138" height="63" as="geometry"/>
        </mxCell>
        <mxCell id="fP2JDEJb-xHG-UvWObpS-5" style="edgeStyle=orthogonalEdgeStyle;rounded=0;orthogonalLoop=1;jettySize=auto;html=1;exitX=0.5;exitY=1;exitDx=0;exitDy=0;entryX=0.5;entryY=0;entryDx=0;entryDy=0;" parent="1" source="ln4YnRmYRfvOp8-9dpnj-84" target="fP2JDEJb-xHG-UvWObpS-4" edge="1">
          <mxGeometry relative="1" as="geometry"/>
        </mxCell>
        <mxCell id="ln4YnRmYRfvOp8-9dpnj-84" value="For Loop 4&amp;nbsp;&lt;br&gt;Randomizing Opponents" style="rounded=1;whiteSpace=wrap;html=1;" parent="1" vertex="1">
          <mxGeometry x="300" y="1404" width="120" height="60" as="geometry"/>
        </mxCell>
        <mxCell id="fP2JDEJb-xHG-UvWObpS-18" style="edgeStyle=orthogonalEdgeStyle;rounded=0;orthogonalLoop=1;jettySize=auto;html=1;exitX=0.5;exitY=1;exitDx=0;exitDy=0;entryX=0.5;entryY=0;entryDx=0;entryDy=0;" parent="1" source="ln4YnRmYRfvOp8-9dpnj-85" target="fP2JDEJb-xHG-UvWObpS-17" edge="1">
          <mxGeometry relative="1" as="geometry"/>
        </mxCell>
        <mxCell id="ln4YnRmYRfvOp8-9dpnj-85" value="Array of taken teams set slot of team true&amp;nbsp;" style="rounded=1;whiteSpace=wrap;html=1;" parent="1" vertex="1">
          <mxGeometry x="81" y="1494" width="120" height="60" as="geometry"/>
        </mxCell>
        <mxCell id="ln4YnRmYRfvOp8-9dpnj-87" value="If X is taken" style="text;html=1;align=center;verticalAlign=middle;resizable=0;points=[];autosize=1;" parent="1" vertex="1">
          <mxGeometry x="212" y="1503" width="81" height="18" as="geometry"/>
        </mxCell>
        <mxCell id="fP2JDEJb-xHG-UvWObpS-6" style="edgeStyle=orthogonalEdgeStyle;rounded=0;orthogonalLoop=1;jettySize=auto;html=1;exitX=0;exitY=0.5;exitDx=0;exitDy=0;entryX=1;entryY=0.5;entryDx=0;entryDy=0;" parent="1" source="fP2JDEJb-xHG-UvWObpS-4" target="ln4YnRmYRfvOp8-9dpnj-85" edge="1">
          <mxGeometry relative="1" as="geometry"/>
        </mxCell>
        <mxCell id="fP2JDEJb-xHG-UvWObpS-4" value="Generate random number" style="rounded=1;whiteSpace=wrap;html=1;" parent="1" vertex="1">
          <mxGeometry x="300" y="1494" width="120" height="60" as="geometry"/>
        </mxCell>
        <mxCell id="fP2JDEJb-xHG-UvWObpS-12" style="edgeStyle=orthogonalEdgeStyle;rounded=0;orthogonalLoop=1;jettySize=auto;html=1;exitX=0;exitY=0.5;exitDx=0;exitDy=0;" parent="1" source="fP2JDEJb-xHG-UvWObpS-9" target="fP2JDEJb-xHG-UvWObpS-15" edge="1">
          <mxGeometry relative="1" as="geometry">
            <mxPoint y="1641" as="targetPoint"/>
          </mxGeometry>
        </mxCell>
        <mxCell id="fP2JDEJb-xHG-UvWObpS-22" style="edgeStyle=orthogonalEdgeStyle;rounded=0;orthogonalLoop=1;jettySize=auto;html=1;exitX=0.5;exitY=1;exitDx=0;exitDy=0;entryX=0.5;entryY=1;entryDx=0;entryDy=0;" parent="1" source="fP2JDEJb-xHG-UvWObpS-9" target="fP2JDEJb-xHG-UvWObpS-17" edge="1">
          <mxGeometry relative="1" as="geometry">
            <Array as="points">
              <mxPoint x="141" y="1709"/>
              <mxPoint x="360" y="1709"/>
            </Array>
          </mxGeometry>
        </mxCell>
        <mxCell id="fP2JDEJb-xHG-UvWObpS-9" value="Array of taken teams set slot of team to true" style="rounded=1;whiteSpace=wrap;html=1;" parent="1" vertex="1">
          <mxGeometry x="81" y="1611" width="120" height="60" as="geometry"/>
        </mxCell>
        <mxCell id="fP2JDEJb-xHG-UvWObpS-11" value="If randNum = X" style="text;html=1;align=center;verticalAlign=middle;resizable=0;points=[];autosize=1;" parent="1" vertex="1">
          <mxGeometry x="203" y="1611" width="99" height="18" as="geometry"/>
        </mxCell>
        <mxCell id="fP2JDEJb-xHG-UvWObpS-25" style="edgeStyle=orthogonalEdgeStyle;rounded=0;orthogonalLoop=1;jettySize=auto;html=1;exitX=0.5;exitY=1;exitDx=0;exitDy=0;" parent="1" source="fP2JDEJb-xHG-UvWObpS-15" target="fP2JDEJb-xHG-UvWObpS-26" edge="1">
          <mxGeometry relative="1" as="geometry">
            <mxPoint x="-137.76470588235293" y="1755" as="targetPoint"/>
          </mxGeometry>
        </mxCell>
        <mxCell id="fP2JDEJb-xHG-UvWObpS-15" value="Set Opponent of team x be team randNum" style="rounded=1;whiteSpace=wrap;html=1;" parent="1" vertex="1">
          <mxGeometry x="-198" y="1611" width="120" height="60" as="geometry"/>
        </mxCell>
        <mxCell id="fP2JDEJb-xHG-UvWObpS-19" style="edgeStyle=orthogonalEdgeStyle;rounded=0;orthogonalLoop=1;jettySize=auto;html=1;exitX=0;exitY=0.5;exitDx=0;exitDy=0;entryX=1;entryY=0.5;entryDx=0;entryDy=0;" parent="1" source="fP2JDEJb-xHG-UvWObpS-17" target="fP2JDEJb-xHG-UvWObpS-9" edge="1">
          <mxGeometry relative="1" as="geometry"/>
        </mxCell>
        <mxCell id="fP2JDEJb-xHG-UvWObpS-17" value="Generate random number" style="rounded=1;whiteSpace=wrap;html=1;" parent="1" vertex="1">
          <mxGeometry x="300" y="1611" width="120" height="60" as="geometry"/>
        </mxCell>
        <mxCell id="fP2JDEJb-xHG-UvWObpS-23" value="If failed" style="text;html=1;align=center;verticalAlign=middle;resizable=0;points=[];autosize=1;" parent="1" vertex="1">
          <mxGeometry x="216" y="1695" width="54" height="18" as="geometry"/>
        </mxCell>
        <mxCell id="fP2JDEJb-xHG-UvWObpS-24" value="See if randNum = x" style="text;html=1;align=center;verticalAlign=middle;resizable=0;points=[];autosize=1;" parent="1" vertex="1">
          <mxGeometry x="-58" y="1613" width="117" height="18" as="geometry"/>
        </mxCell>
        <mxCell id="fP2JDEJb-xHG-UvWObpS-28" style="edgeStyle=orthogonalEdgeStyle;rounded=0;orthogonalLoop=1;jettySize=auto;html=1;exitX=1;exitY=0.5;exitDx=0;exitDy=0;" parent="1" source="fP2JDEJb-xHG-UvWObpS-26" target="fP2JDEJb-xHG-UvWObpS-29" edge="1">
          <mxGeometry relative="1" as="geometry">
            <mxPoint x="278.1764705882353" y="1776.5294117647059" as="targetPoint"/>
          </mxGeometry>
        </mxCell>
        <mxCell id="fP2JDEJb-xHG-UvWObpS-26" value="Set taken randNum be false&amp;nbsp;" style="rounded=1;whiteSpace=wrap;html=1;" parent="1" vertex="1">
          <mxGeometry x="-198.00470588235294" y="1746" width="120" height="60" as="geometry"/>
        </mxCell>
        <mxCell id="fP2JDEJb-xHG-UvWObpS-27" value="If team x already has played team rand num" style="text;html=1;strokeColor=none;fillColor=none;align=center;verticalAlign=middle;whiteSpace=wrap;rounded=0;" parent="1" vertex="1">
          <mxGeometry x="-141" y="1701" width="108" height="20" as="geometry"/>
        </mxCell>
        <mxCell id="fP2JDEJb-xHG-UvWObpS-31" style="edgeStyle=orthogonalEdgeStyle;rounded=0;orthogonalLoop=1;jettySize=auto;html=1;exitX=0.5;exitY=1;exitDx=0;exitDy=0;" parent="1" source="fP2JDEJb-xHG-UvWObpS-29" target="fP2JDEJb-xHG-UvWObpS-32" edge="1">
          <mxGeometry relative="1" as="geometry">
            <mxPoint x="362.2352941176471" y="1844.7647058823532" as="targetPoint"/>
          </mxGeometry>
        </mxCell>
        <mxCell id="fP2JDEJb-xHG-UvWObpS-29" value="Call function to select park" style="rounded=1;whiteSpace=wrap;html=1;" parent="1" vertex="1">
          <mxGeometry x="301.99647058823535" y="1745.9994117647059" width="120" height="60" as="geometry"/>
        </mxCell>
        <mxCell id="fP2JDEJb-xHG-UvWObpS-30" value="When all taken = true" style="text;html=1;strokeColor=none;fillColor=none;align=center;verticalAlign=middle;whiteSpace=wrap;rounded=0;" parent="1" vertex="1">
          <mxGeometry x="59" y="1746" width="85" height="20" as="geometry"/>
        </mxCell>
        <mxCell id="fP2JDEJb-xHG-UvWObpS-36" style="edgeStyle=orthogonalEdgeStyle;rounded=0;orthogonalLoop=1;jettySize=auto;html=1;entryX=0.5;entryY=0;entryDx=0;entryDy=0;" parent="1" source="fP2JDEJb-xHG-UvWObpS-32" target="fP2JDEJb-xHG-UvWObpS-35" edge="1">
          <mxGeometry relative="1" as="geometry"/>
        </mxCell>
        <mxCell id="fP2JDEJb-xHG-UvWObpS-32" value="Create 2d array for park preferences for # of parks and teams&amp;nbsp;" style="rounded=1;whiteSpace=wrap;html=1;" parent="1" vertex="1">
          <mxGeometry x="302.24529411764706" y="1854.0047058823532" width="120" height="60" as="geometry"/>
        </mxCell>
        <mxCell id="fP2JDEJb-xHG-UvWObpS-34" value="Set c = 0&lt;br&gt;For # of times called" style="rounded=1;whiteSpace=wrap;html=1;" parent="1" vertex="1">
          <mxGeometry x="125.99529411764706" y="1979.9999999999995" width="120" height="60" as="geometry"/>
        </mxCell>
        <mxCell id="fP2JDEJb-xHG-UvWObpS-37" style="edgeStyle=orthogonalEdgeStyle;rounded=0;orthogonalLoop=1;jettySize=auto;html=1;exitX=0;exitY=0.5;exitDx=0;exitDy=0;entryX=1;entryY=0.5;entryDx=0;entryDy=0;" parent="1" source="fP2JDEJb-xHG-UvWObpS-35" target="fP2JDEJb-xHG-UvWObpS-34" edge="1">
          <mxGeometry relative="1" as="geometry"/>
        </mxCell>
        <mxCell id="fP2JDEJb-xHG-UvWObpS-38" style="edgeStyle=orthogonalEdgeStyle;rounded=0;orthogonalLoop=1;jettySize=auto;html=1;" parent="1" source="fP2JDEJb-xHG-UvWObpS-35" target="fP2JDEJb-xHG-UvWObpS-39" edge="1">
          <mxGeometry relative="1" as="geometry">
            <mxPoint x="362" y="2124" as="targetPoint"/>
          </mxGeometry>
        </mxCell>
        <mxCell id="fP2JDEJb-xHG-UvWObpS-50" style="edgeStyle=orthogonalEdgeStyle;rounded=0;orthogonalLoop=1;jettySize=auto;html=1;" parent="1" source="fP2JDEJb-xHG-UvWObpS-35" target="fP2JDEJb-xHG-UvWObpS-51" edge="1">
          <mxGeometry relative="1" as="geometry">
            <mxPoint x="540" y="2010" as="targetPoint"/>
          </mxGeometry>
        </mxCell>
        <mxCell id="fP2JDEJb-xHG-UvWObpS-35" value="Loop 5&lt;br&gt;Assigning values to park preferences" style="rounded=1;whiteSpace=wrap;html=1;" parent="1" vertex="1">
          <mxGeometry x="302" y="1980" width="120" height="60" as="geometry"/>
        </mxCell>
        <mxCell id="fP2JDEJb-xHG-UvWObpS-40" style="edgeStyle=orthogonalEdgeStyle;rounded=0;orthogonalLoop=1;jettySize=auto;html=1;" parent="1" source="fP2JDEJb-xHG-UvWObpS-39" target="fP2JDEJb-xHG-UvWObpS-41" edge="1">
          <mxGeometry relative="1" as="geometry">
            <mxPoint x="197.99999999999977" y="2124" as="targetPoint"/>
          </mxGeometry>
        </mxCell>
        <mxCell id="fP2JDEJb-xHG-UvWObpS-52" style="edgeStyle=orthogonalEdgeStyle;rounded=0;orthogonalLoop=1;jettySize=auto;html=1;" parent="1" source="fP2JDEJb-xHG-UvWObpS-39" target="fP2JDEJb-xHG-UvWObpS-54" edge="1">
          <mxGeometry relative="1" as="geometry">
            <mxPoint x="362" y="2240.9999999999995" as="targetPoint"/>
          </mxGeometry>
        </mxCell>
        <mxCell id="fP2JDEJb-xHG-UvWObpS-39" value="Loop 6&amp;nbsp;&lt;br&gt;Checks for team preference" style="rounded=1;whiteSpace=wrap;html=1;" parent="1" vertex="1">
          <mxGeometry x="302" y="2094" width="120" height="60" as="geometry"/>
        </mxCell>
        <mxCell id="fP2JDEJb-xHG-UvWObpS-42" style="edgeStyle=orthogonalEdgeStyle;rounded=0;orthogonalLoop=1;jettySize=auto;html=1;exitX=0;exitY=0.5;exitDx=0;exitDy=0;" parent="1" source="fP2JDEJb-xHG-UvWObpS-41" target="fP2JDEJb-xHG-UvWObpS-43" edge="1">
          <mxGeometry relative="1" as="geometry">
            <mxPoint x="72" y="2124" as="targetPoint"/>
          </mxGeometry>
        </mxCell>
        <mxCell id="fP2JDEJb-xHG-UvWObpS-41" value="If team has preference for park [x] [c]" style="rounded=1;whiteSpace=wrap;html=1;" parent="1" vertex="1">
          <mxGeometry x="137.99999999999977" y="2094" width="120" height="60" as="geometry"/>
        </mxCell>
        <mxCell id="fP2JDEJb-xHG-UvWObpS-47" style="edgeStyle=orthogonalEdgeStyle;rounded=0;orthogonalLoop=1;jettySize=auto;html=1;exitX=0.5;exitY=0;exitDx=0;exitDy=0;entryX=0.25;entryY=0;entryDx=0;entryDy=0;" parent="1" source="fP2JDEJb-xHG-UvWObpS-43" target="fP2JDEJb-xHG-UvWObpS-39" edge="1">
          <mxGeometry relative="1" as="geometry"/>
        </mxCell>
        <mxCell id="fP2JDEJb-xHG-UvWObpS-43" value="c++" style="rounded=0;whiteSpace=wrap;html=1;" parent="1" vertex="1">
          <mxGeometry x="-33" y="2094" width="120" height="60" as="geometry"/>
        </mxCell>
        <mxCell id="fP2JDEJb-xHG-UvWObpS-48" value="loop for number of teams" style="text;html=1;align=center;verticalAlign=middle;resizable=0;points=[];autosize=1;" parent="1" vertex="1">
          <mxGeometry x="170" y="2060" width="144" height="18" as="geometry"/>
        </mxCell>
        <mxCell id="fP2JDEJb-xHG-UvWObpS-51" value="Loop number of parks" style="rounded=1;whiteSpace=wrap;html=1;" parent="1" vertex="1">
          <mxGeometry x="480" y="1980" width="120" height="60" as="geometry"/>
        </mxCell>
        <mxCell id="fP2JDEJb-xHG-UvWObpS-55" style="edgeStyle=orthogonalEdgeStyle;rounded=0;orthogonalLoop=1;jettySize=auto;html=1;exitX=0.5;exitY=1;exitDx=0;exitDy=0;" parent="1" source="fP2JDEJb-xHG-UvWObpS-54" target="fP2JDEJb-xHG-UvWObpS-56" edge="1">
          <mxGeometry relative="1" as="geometry">
            <mxPoint x="362.2352941176471" y="2322" as="targetPoint"/>
          </mxGeometry>
        </mxCell>
        <mxCell id="fP2JDEJb-xHG-UvWObpS-54" value="Loop 7&lt;br&gt;Assigning team preferred choices" style="rounded=1;whiteSpace=wrap;html=1;" parent="1" vertex="1">
          <mxGeometry x="302" y="2210.9999999999995" width="120" height="60" as="geometry"/>
        </mxCell>
        <mxCell id="fP2JDEJb-xHG-UvWObpS-61" style="edgeStyle=orthogonalEdgeStyle;rounded=0;orthogonalLoop=1;jettySize=auto;html=1;exitX=0;exitY=0.5;exitDx=0;exitDy=0;entryX=1;entryY=0.5;entryDx=0;entryDy=0;" parent="1" source="fP2JDEJb-xHG-UvWObpS-56" target="fP2JDEJb-xHG-UvWObpS-57" edge="1">
          <mxGeometry relative="1" as="geometry"/>
        </mxCell>
        <mxCell id="fP2JDEJb-xHG-UvWObpS-74" style="edgeStyle=orthogonalEdgeStyle;rounded=0;orthogonalLoop=1;jettySize=auto;html=1;exitX=1;exitY=0.5;exitDx=0;exitDy=0;entryX=1;entryY=0.5;entryDx=0;entryDy=0;" parent="1" source="fP2JDEJb-xHG-UvWObpS-56" target="fP2JDEJb-xHG-UvWObpS-54" edge="1">
          <mxGeometry relative="1" as="geometry">
            <Array as="points">
              <mxPoint x="459" y="2361"/>
              <mxPoint x="459" y="2241"/>
            </Array>
          </mxGeometry>
        </mxCell>
        <mxCell id="fP2JDEJb-xHG-UvWObpS-76" style="edgeStyle=orthogonalEdgeStyle;rounded=0;orthogonalLoop=1;jettySize=auto;html=1;exitX=0.5;exitY=1;exitDx=0;exitDy=0;" parent="1" source="fP2JDEJb-xHG-UvWObpS-56" target="fP2JDEJb-xHG-UvWObpS-77" edge="1">
          <mxGeometry relative="1" as="geometry">
            <mxPoint x="362.2352941176471" y="2529" as="targetPoint"/>
            <Array as="points">
              <mxPoint x="362" y="2529"/>
              <mxPoint x="230" y="2529"/>
            </Array>
          </mxGeometry>
        </mxCell>
        <mxCell id="fP2JDEJb-xHG-UvWObpS-56" value="Loop 8&lt;br&gt;Assigning which team gets preferred choices" style="rounded=1;whiteSpace=wrap;html=1;" parent="1" vertex="1">
          <mxGeometry x="302.24529411764706" y="2331" width="120" height="60" as="geometry"/>
        </mxCell>
        <mxCell id="fP2JDEJb-xHG-UvWObpS-62" style="edgeStyle=orthogonalEdgeStyle;rounded=0;orthogonalLoop=1;jettySize=auto;html=1;exitX=0;exitY=0.5;exitDx=0;exitDy=0;entryX=1;entryY=0.5;entryDx=0;entryDy=0;" parent="1" source="fP2JDEJb-xHG-UvWObpS-57" target="fP2JDEJb-xHG-UvWObpS-58" edge="1">
          <mxGeometry relative="1" as="geometry"/>
        </mxCell>
        <mxCell id="fP2JDEJb-xHG-UvWObpS-57" value="Randomize who gets preference" style="rounded=1;whiteSpace=wrap;html=1;" parent="1" vertex="1">
          <mxGeometry x="126" y="2331" width="120" height="60" as="geometry"/>
        </mxCell>
        <mxCell id="fP2JDEJb-xHG-UvWObpS-64" value="" style="edgeStyle=orthogonalEdgeStyle;rounded=0;orthogonalLoop=1;jettySize=auto;html=1;" parent="1" source="fP2JDEJb-xHG-UvWObpS-58" target="fP2JDEJb-xHG-UvWObpS-59" edge="1">
          <mxGeometry relative="1" as="geometry"/>
        </mxCell>
        <mxCell id="fP2JDEJb-xHG-UvWObpS-58" value="Remove team from all preference list" style="rounded=1;whiteSpace=wrap;html=1;" parent="1" vertex="1">
          <mxGeometry x="-39" y="2331" width="120" height="60" as="geometry"/>
        </mxCell>
        <mxCell id="fP2JDEJb-xHG-UvWObpS-65" style="edgeStyle=orthogonalEdgeStyle;rounded=0;orthogonalLoop=1;jettySize=auto;html=1;entryX=0;entryY=0.5;entryDx=0;entryDy=0;" parent="1" source="fP2JDEJb-xHG-UvWObpS-59" target="fP2JDEJb-xHG-UvWObpS-60" edge="1">
          <mxGeometry relative="1" as="geometry"/>
        </mxCell>
        <mxCell id="fP2JDEJb-xHG-UvWObpS-59" value="Array for if park is selected set true&amp;nbsp;" style="rounded=1;whiteSpace=wrap;html=1;" parent="1" vertex="1">
          <mxGeometry x="-39" y="2430" width="120" height="60" as="geometry"/>
        </mxCell>
        <mxCell id="fP2JDEJb-xHG-UvWObpS-66" style="edgeStyle=orthogonalEdgeStyle;rounded=0;orthogonalLoop=1;jettySize=auto;html=1;exitX=1;exitY=0.5;exitDx=0;exitDy=0;entryX=0.25;entryY=1;entryDx=0;entryDy=0;" parent="1" source="fP2JDEJb-xHG-UvWObpS-60" target="fP2JDEJb-xHG-UvWObpS-56" edge="1">
          <mxGeometry relative="1" as="geometry"/>
        </mxCell>
        <mxCell id="fP2JDEJb-xHG-UvWObpS-60" value="Creates temp preference list" style="rounded=1;whiteSpace=wrap;html=1;" parent="1" vertex="1">
          <mxGeometry x="126" y="2430" width="120" height="60" as="geometry"/>
        </mxCell>
        <mxCell id="fP2JDEJb-xHG-UvWObpS-67" value="Loops for # of parks" style="text;html=1;strokeColor=none;fillColor=none;align=center;verticalAlign=middle;whiteSpace=wrap;rounded=0;" parent="1" vertex="1">
          <mxGeometry x="270" y="2439" width="55" height="20" as="geometry"/>
        </mxCell>
        <mxCell id="fP2JDEJb-xHG-UvWObpS-75" value="Loops twice" style="text;html=1;strokeColor=none;fillColor=none;align=center;verticalAlign=middle;whiteSpace=wrap;rounded=0;" parent="1" vertex="1">
          <mxGeometry x="465" y="2286" width="40" height="20" as="geometry"/>
        </mxCell>
        <mxCell id="fP2JDEJb-xHG-UvWObpS-78" style="edgeStyle=orthogonalEdgeStyle;rounded=0;orthogonalLoop=1;jettySize=auto;html=1;exitX=0.5;exitY=1;exitDx=0;exitDy=0;" parent="1" source="fP2JDEJb-xHG-UvWObpS-77" target="fP2JDEJb-xHG-UvWObpS-79" edge="1">
          <mxGeometry relative="1" as="geometry">
            <mxPoint x="230.66529411764705" y="2739" as="targetPoint"/>
          </mxGeometry>
        </mxCell>
        <mxCell id="fP2JDEJb-xHG-UvWObpS-116" style="edgeStyle=orthogonalEdgeStyle;rounded=0;orthogonalLoop=1;jettySize=auto;html=1;" parent="1" source="fP2JDEJb-xHG-UvWObpS-77" target="fP2JDEJb-xHG-UvWObpS-117" edge="1">
          <mxGeometry relative="1" as="geometry">
            <mxPoint x="378" y="2640" as="targetPoint"/>
          </mxGeometry>
        </mxCell>
        <mxCell id="fP2JDEJb-xHG-UvWObpS-77" value="Loop 9&lt;br&gt;If both teams got preference" style="rounded=1;whiteSpace=wrap;html=1;" parent="1" vertex="1">
          <mxGeometry x="170.66529411764705" y="2610" width="120" height="60" as="geometry"/>
        </mxCell>
        <mxCell id="fP2JDEJb-xHG-UvWObpS-82" style="edgeStyle=orthogonalEdgeStyle;rounded=0;orthogonalLoop=1;jettySize=auto;html=1;" parent="1" source="fP2JDEJb-xHG-UvWObpS-79" target="fP2JDEJb-xHG-UvWObpS-83" edge="1">
          <mxGeometry relative="1" as="geometry">
            <mxPoint x="230.66529411764705" y="2829" as="targetPoint"/>
          </mxGeometry>
        </mxCell>
        <mxCell id="fP2JDEJb-xHG-UvWObpS-79" value="Select one of the teams at random" style="rounded=1;whiteSpace=wrap;html=1;" parent="1" vertex="1">
          <mxGeometry x="170.66529411764705" y="2709" width="120" height="60" as="geometry"/>
        </mxCell>
        <mxCell id="fP2JDEJb-xHG-UvWObpS-85" style="edgeStyle=orthogonalEdgeStyle;rounded=0;orthogonalLoop=1;jettySize=auto;html=1;entryX=0.5;entryY=0;entryDx=0;entryDy=0;" parent="1" source="fP2JDEJb-xHG-UvWObpS-83" target="fP2JDEJb-xHG-UvWObpS-84" edge="1">
          <mxGeometry relative="1" as="geometry"/>
        </mxCell>
        <mxCell id="fP2JDEJb-xHG-UvWObpS-83" value="Remove team preference from other team" style="rounded=1;whiteSpace=wrap;html=1;" parent="1" vertex="1">
          <mxGeometry x="170.66529411764705" y="2799" width="120" height="60" as="geometry"/>
        </mxCell>
        <mxCell id="fP2JDEJb-xHG-UvWObpS-90" style="edgeStyle=orthogonalEdgeStyle;rounded=0;orthogonalLoop=1;jettySize=auto;html=1;" parent="1" source="fP2JDEJb-xHG-UvWObpS-84" target="fP2JDEJb-xHG-UvWObpS-91" edge="1">
          <mxGeometry relative="1" as="geometry">
            <mxPoint x="230.42999999999998" y="3054" as="targetPoint"/>
          </mxGeometry>
        </mxCell>
        <mxCell id="fP2JDEJb-xHG-UvWObpS-84" value="Set both team as that park" style="rounded=1;whiteSpace=wrap;html=1;" parent="1" vertex="1">
          <mxGeometry x="170.42999999999998" y="2910" width="120" height="60" as="geometry"/>
        </mxCell>
        <mxCell id="fP2JDEJb-xHG-UvWObpS-93" style="edgeStyle=orthogonalEdgeStyle;rounded=0;orthogonalLoop=1;jettySize=auto;html=1;exitX=0;exitY=0.5;exitDx=0;exitDy=0;" parent="1" source="fP2JDEJb-xHG-UvWObpS-91" target="fP2JDEJb-xHG-UvWObpS-94" edge="1">
          <mxGeometry relative="1" as="geometry">
            <mxPoint x="66.42999999999978" y="3054.5882352941176" as="targetPoint"/>
          </mxGeometry>
        </mxCell>
        <mxCell id="fP2JDEJb-xHG-UvWObpS-98" style="edgeStyle=orthogonalEdgeStyle;rounded=0;orthogonalLoop=1;jettySize=auto;html=1;" parent="1" source="fP2JDEJb-xHG-UvWObpS-91" target="fP2JDEJb-xHG-UvWObpS-99" edge="1">
          <mxGeometry relative="1" as="geometry">
            <mxPoint x="230.42999999999998" y="3171" as="targetPoint"/>
          </mxGeometry>
        </mxCell>
        <mxCell id="fP2JDEJb-xHG-UvWObpS-91" value="Recall preference choice method reselect team" style="rounded=1;whiteSpace=wrap;html=1;" parent="1" vertex="1">
          <mxGeometry x="170.42999999999998" y="3024" width="120" height="60" as="geometry"/>
        </mxCell>
        <mxCell id="fP2JDEJb-xHG-UvWObpS-96" style="edgeStyle=orthogonalEdgeStyle;rounded=0;orthogonalLoop=1;jettySize=auto;html=1;" parent="1" source="fP2JDEJb-xHG-UvWObpS-94" target="fP2JDEJb-xHG-UvWObpS-97" edge="1">
          <mxGeometry relative="1" as="geometry">
            <mxPoint x="-113.57" y="3053.9982352941174" as="targetPoint"/>
          </mxGeometry>
        </mxCell>
        <mxCell id="fP2JDEJb-xHG-UvWObpS-94" value="If one team got preference" style="rounded=1;whiteSpace=wrap;html=1;" parent="1" vertex="1">
          <mxGeometry x="38.18000000000001" y="3034.5" width="78" height="39" as="geometry"/>
        </mxCell>
        <mxCell id="fP2JDEJb-xHG-UvWObpS-104" style="edgeStyle=orthogonalEdgeStyle;rounded=0;orthogonalLoop=1;jettySize=auto;html=1;exitX=0.5;exitY=0;exitDx=0;exitDy=0;entryX=0;entryY=0.5;entryDx=0;entryDy=0;" parent="1" source="fP2JDEJb-xHG-UvWObpS-97" target="fP2JDEJb-xHG-UvWObpS-77" edge="1">
          <mxGeometry relative="1" as="geometry"/>
        </mxCell>
        <mxCell id="fP2JDEJb-xHG-UvWObpS-97" value="Set Both teams as that park" style="rounded=1;whiteSpace=wrap;html=1;" parent="1" vertex="1">
          <mxGeometry x="-173.56999999999996" y="3023.9982352941174" width="120" height="60" as="geometry"/>
        </mxCell>
        <mxCell id="fP2JDEJb-xHG-UvWObpS-115" style="edgeStyle=orthogonalEdgeStyle;rounded=0;orthogonalLoop=1;jettySize=auto;html=1;exitX=1;exitY=0.5;exitDx=0;exitDy=0;entryX=1;entryY=0.75;entryDx=0;entryDy=0;" parent="1" source="fP2JDEJb-xHG-UvWObpS-99" target="fP2JDEJb-xHG-UvWObpS-77" edge="1">
          <mxGeometry relative="1" as="geometry"/>
        </mxCell>
        <mxCell id="fP2JDEJb-xHG-UvWObpS-99" value="Else&amp;nbsp;&lt;br&gt;Do nothing" style="rounded=1;whiteSpace=wrap;html=1;" parent="1" vertex="1">
          <mxGeometry x="166.67999999999998" y="3156" width="127.5" height="60" as="geometry"/>
        </mxCell>
        <mxCell id="fP2JDEJb-xHG-UvWObpS-119" style="edgeStyle=orthogonalEdgeStyle;rounded=0;orthogonalLoop=1;jettySize=auto;html=1;" parent="1" source="fP2JDEJb-xHG-UvWObpS-117" target="fP2JDEJb-xHG-UvWObpS-120" edge="1">
          <mxGeometry relative="1" as="geometry">
            <mxPoint x="411" y="2762.9999999999995" as="targetPoint"/>
          </mxGeometry>
        </mxCell>
        <mxCell id="fP2JDEJb-xHG-UvWObpS-123" style="edgeStyle=orthogonalEdgeStyle;rounded=0;orthogonalLoop=1;jettySize=auto;html=1;exitX=1;exitY=0.5;exitDx=0;exitDy=0;" parent="1" source="fP2JDEJb-xHG-UvWObpS-117" target="fP2JDEJb-xHG-UvWObpS-124" edge="1">
          <mxGeometry relative="1" as="geometry">
            <mxPoint x="540" y="2640.2857142857147" as="targetPoint"/>
          </mxGeometry>
        </mxCell>
        <mxCell id="fP2JDEJb-xHG-UvWObpS-142" style="edgeStyle=orthogonalEdgeStyle;rounded=0;orthogonalLoop=1;jettySize=auto;html=1;exitX=1;exitY=0.75;exitDx=0;exitDy=0;entryX=1;entryY=0.5;entryDx=0;entryDy=0;" parent="1" source="fP2JDEJb-xHG-UvWObpS-117" target="fP2JDEJb-xHG-UvWObpS-125" edge="1">
          <mxGeometry relative="1" as="geometry"/>
        </mxCell>
        <mxCell id="fP2JDEJb-xHG-UvWObpS-117" value="Loop 10&lt;br&gt;If any park has no team" style="rounded=1;whiteSpace=wrap;html=1;" parent="1" vertex="1">
          <mxGeometry x="351" y="2610" width="120" height="60" as="geometry"/>
        </mxCell>
        <mxCell id="fP2JDEJb-xHG-UvWObpS-122" style="edgeStyle=orthogonalEdgeStyle;rounded=0;orthogonalLoop=1;jettySize=auto;html=1;entryX=0.5;entryY=0;entryDx=0;entryDy=0;" parent="1" source="fP2JDEJb-xHG-UvWObpS-120" target="fP2JDEJb-xHG-UvWObpS-121" edge="1">
          <mxGeometry relative="1" as="geometry"/>
        </mxCell>
        <mxCell id="fP2JDEJb-xHG-UvWObpS-120" value="If park has open slot" style="rounded=1;whiteSpace=wrap;html=1;" parent="1" vertex="1">
          <mxGeometry x="351" y="2732.9999999999995" width="120" height="60" as="geometry"/>
        </mxCell>
        <mxCell id="fP2JDEJb-xHG-UvWObpS-121" value="Randomly assign team with open slot" style="rounded=1;whiteSpace=wrap;html=1;" parent="1" vertex="1">
          <mxGeometry x="351" y="2862" width="120" height="60" as="geometry"/>
        </mxCell>
        <mxCell id="fP2JDEJb-xHG-UvWObpS-124" value="Else&lt;br&gt;do nothing" style="rounded=1;whiteSpace=wrap;html=1;" parent="1" vertex="1">
          <mxGeometry x="505" y="2609.9957142857147" width="120" height="60" as="geometry"/>
        </mxCell>
        <mxCell id="fP2JDEJb-xHG-UvWObpS-128" style="edgeStyle=orthogonalEdgeStyle;rounded=0;orthogonalLoop=1;jettySize=auto;html=1;entryX=1;entryY=0.5;entryDx=0;entryDy=0;" parent="1" source="fP2JDEJb-xHG-UvWObpS-125" target="fP2JDEJb-xHG-UvWObpS-126" edge="1">
          <mxGeometry relative="1" as="geometry"/>
        </mxCell>
        <mxCell id="fP2JDEJb-xHG-UvWObpS-125" value="Randomizing time function" style="rounded=1;whiteSpace=wrap;html=1;" parent="1" vertex="1">
          <mxGeometry x="246" y="3357" width="120" height="60" as="geometry"/>
        </mxCell>
        <mxCell id="fP2JDEJb-xHG-UvWObpS-130" style="edgeStyle=orthogonalEdgeStyle;rounded=0;orthogonalLoop=1;jettySize=auto;html=1;" parent="1" source="fP2JDEJb-xHG-UvWObpS-126" target="fP2JDEJb-xHG-UvWObpS-131" edge="1">
          <mxGeometry relative="1" as="geometry">
            <mxPoint x="-36" y="3387" as="targetPoint"/>
          </mxGeometry>
        </mxCell>
        <mxCell id="fP2JDEJb-xHG-UvWObpS-126" value="2d Array for time preference" style="rounded=1;whiteSpace=wrap;html=1;" parent="1" vertex="1">
          <mxGeometry x="59" y="3357" width="120" height="60" as="geometry"/>
        </mxCell>
        <mxCell id="fP2JDEJb-xHG-UvWObpS-133" style="edgeStyle=orthogonalEdgeStyle;rounded=0;orthogonalLoop=1;jettySize=auto;html=1;entryX=0.25;entryY=0;entryDx=0;entryDy=0;" parent="1" source="fP2JDEJb-xHG-UvWObpS-131" target="fP2JDEJb-xHG-UvWObpS-132" edge="1">
          <mxGeometry relative="1" as="geometry"/>
        </mxCell>
        <mxCell id="fP2JDEJb-xHG-UvWObpS-139" style="edgeStyle=orthogonalEdgeStyle;rounded=0;orthogonalLoop=1;jettySize=auto;html=1;exitX=0.25;exitY=1;exitDx=0;exitDy=0;entryX=1;entryY=0.5;entryDx=0;entryDy=0;" parent="1" source="fP2JDEJb-xHG-UvWObpS-131" target="fP2JDEJb-xHG-UvWObpS-138" edge="1">
          <mxGeometry relative="1" as="geometry"/>
        </mxCell>
        <mxCell id="fP2JDEJb-xHG-UvWObpS-144" style="edgeStyle=orthogonalEdgeStyle;rounded=0;orthogonalLoop=1;jettySize=auto;html=1;exitX=0;exitY=0.25;exitDx=0;exitDy=0;entryX=0;entryY=0.5;entryDx=0;entryDy=0;" parent="1" source="fP2JDEJb-xHG-UvWObpS-131" target="fP2JDEJb-xHG-UvWObpS-143" edge="1">
          <mxGeometry relative="1" as="geometry"/>
        </mxCell>
        <mxCell id="fP2JDEJb-xHG-UvWObpS-131" value="Loop 11 &lt;br&gt;Setting preference" style="rounded=1;whiteSpace=wrap;html=1;" parent="1" vertex="1">
          <mxGeometry x="-96" y="3357" width="120" height="60" as="geometry"/>
        </mxCell>
        <mxCell id="fP2JDEJb-xHG-UvWObpS-135" style="edgeStyle=orthogonalEdgeStyle;rounded=0;orthogonalLoop=1;jettySize=auto;html=1;exitX=1;exitY=0.5;exitDx=0;exitDy=0;entryX=0;entryY=0.5;entryDx=0;entryDy=0;" parent="1" source="fP2JDEJb-xHG-UvWObpS-132" target="fP2JDEJb-xHG-UvWObpS-134" edge="1">
          <mxGeometry relative="1" as="geometry"/>
        </mxCell>
        <mxCell id="fP2JDEJb-xHG-UvWObpS-132" value="Loop 12&lt;br&gt;For loop" style="rounded=1;whiteSpace=wrap;html=1;" parent="1" vertex="1">
          <mxGeometry x="-33" y="3465" width="120" height="60" as="geometry"/>
        </mxCell>
        <mxCell id="fP2JDEJb-xHG-UvWObpS-136" style="edgeStyle=orthogonalEdgeStyle;rounded=0;orthogonalLoop=1;jettySize=auto;html=1;entryX=0.5;entryY=1;entryDx=0;entryDy=0;" parent="1" source="fP2JDEJb-xHG-UvWObpS-134" target="fP2JDEJb-xHG-UvWObpS-126" edge="1">
          <mxGeometry relative="1" as="geometry"/>
        </mxCell>
        <mxCell id="fP2JDEJb-xHG-UvWObpS-134" value="If team[x] = time[y] adds to array" style="rounded=1;whiteSpace=wrap;html=1;" parent="1" vertex="1">
          <mxGeometry x="126" y="3465" width="120" height="60" as="geometry"/>
        </mxCell>
        <mxCell id="fP2JDEJb-xHG-UvWObpS-140" style="edgeStyle=orthogonalEdgeStyle;rounded=0;orthogonalLoop=1;jettySize=auto;html=1;exitX=0.5;exitY=0;exitDx=0;exitDy=0;entryX=0;entryY=0.5;entryDx=0;entryDy=0;" parent="1" source="fP2JDEJb-xHG-UvWObpS-138" target="fP2JDEJb-xHG-UvWObpS-131" edge="1">
          <mxGeometry relative="1" as="geometry"/>
        </mxCell>
        <mxCell id="fP2JDEJb-xHG-UvWObpS-138" value="Loops twice" style="rounded=1;whiteSpace=wrap;html=1;" parent="1" vertex="1">
          <mxGeometry x="-207" y="3465" width="120" height="60" as="geometry"/>
        </mxCell>
        <mxCell id="fP2JDEJb-xHG-UvWObpS-146" style="edgeStyle=orthogonalEdgeStyle;rounded=0;orthogonalLoop=1;jettySize=auto;html=1;entryX=0;entryY=0.5;entryDx=0;entryDy=0;" parent="1" source="fP2JDEJb-xHG-UvWObpS-143" target="fP2JDEJb-xHG-UvWObpS-145" edge="1">
          <mxGeometry relative="1" as="geometry"/>
        </mxCell>
        <mxCell id="fP2JDEJb-xHG-UvWObpS-152" style="edgeStyle=orthogonalEdgeStyle;rounded=0;orthogonalLoop=1;jettySize=auto;html=1;exitX=0.5;exitY=0;exitDx=0;exitDy=0;entryX=0.5;entryY=0;entryDx=0;entryDy=0;" parent="1" source="fP2JDEJb-xHG-UvWObpS-143" target="fP2JDEJb-xHG-UvWObpS-151" edge="1">
          <mxGeometry relative="1" as="geometry"/>
        </mxCell>
        <mxCell id="fP2JDEJb-xHG-UvWObpS-143" value="Loop 13&lt;br&gt;Setting time" style="rounded=1;whiteSpace=wrap;html=1;" parent="1" vertex="1">
          <mxGeometry x="-243" y="3645" width="120" height="60" as="geometry"/>
        </mxCell>
        <mxCell id="fP2JDEJb-xHG-UvWObpS-148" style="edgeStyle=orthogonalEdgeStyle;rounded=0;orthogonalLoop=1;jettySize=auto;html=1;exitX=0.5;exitY=1;exitDx=0;exitDy=0;entryX=0.5;entryY=1;entryDx=0;entryDy=0;" parent="1" source="fP2JDEJb-xHG-UvWObpS-145" target="fP2JDEJb-xHG-UvWObpS-143" edge="1">
          <mxGeometry relative="1" as="geometry"/>
        </mxCell>
        <mxCell id="fP2JDEJb-xHG-UvWObpS-145" value="Randomly select team one for 6pm one for 7pm" style="rounded=1;whiteSpace=wrap;html=1;" parent="1" vertex="1">
          <mxGeometry x="-27" y="3645" width="120" height="60" as="geometry"/>
        </mxCell>
        <mxCell id="fP2JDEJb-xHG-UvWObpS-149" value="Loops for number of teams" style="text;html=1;strokeColor=none;fillColor=none;align=center;verticalAlign=middle;whiteSpace=wrap;rounded=0;" parent="1" vertex="1">
          <mxGeometry x="-117" y="3735" width="107" height="20" as="geometry"/>
        </mxCell>
        <mxCell id="fP2JDEJb-xHG-UvWObpS-156" style="edgeStyle=orthogonalEdgeStyle;rounded=0;orthogonalLoop=1;jettySize=auto;html=1;exitX=0.5;exitY=1;exitDx=0;exitDy=0;" parent="1" source="fP2JDEJb-xHG-UvWObpS-151" target="fP2JDEJb-xHG-UvWObpS-157" edge="1">
          <mxGeometry relative="1" as="geometry">
            <mxPoint x="405" y="3780" as="targetPoint"/>
          </mxGeometry>
        </mxCell>
        <mxCell id="fP2JDEJb-xHG-UvWObpS-151" value="Loop 14 setting preference for teams" style="rounded=1;whiteSpace=wrap;html=1;" parent="1" vertex="1">
          <mxGeometry x="345" y="3645" width="120" height="60" as="geometry"/>
        </mxCell>
        <mxCell id="fP2JDEJb-xHG-UvWObpS-159" style="edgeStyle=orthogonalEdgeStyle;rounded=0;orthogonalLoop=1;jettySize=auto;html=1;exitX=0;exitY=0.5;exitDx=0;exitDy=0;" parent="1" source="fP2JDEJb-xHG-UvWObpS-157" target="fP2JDEJb-xHG-UvWObpS-160" edge="1">
          <mxGeometry relative="1" as="geometry">
            <mxPoint x="252" y="3780" as="targetPoint"/>
          </mxGeometry>
        </mxCell>
        <mxCell id="fP2JDEJb-xHG-UvWObpS-157" value="Temp array for preferences" style="rounded=1;whiteSpace=wrap;html=1;" parent="1" vertex="1">
          <mxGeometry x="345" y="3750" width="120" height="60" as="geometry"/>
        </mxCell>
        <mxCell id="fP2JDEJb-xHG-UvWObpS-171" style="edgeStyle=orthogonalEdgeStyle;rounded=0;orthogonalLoop=1;jettySize=auto;html=1;exitX=0;exitY=0.5;exitDx=0;exitDy=0;entryX=1;entryY=0.5;entryDx=0;entryDy=0;" parent="1" source="fP2JDEJb-xHG-UvWObpS-160" target="fP2JDEJb-xHG-UvWObpS-169" edge="1">
          <mxGeometry relative="1" as="geometry"/>
        </mxCell>
        <mxCell id="fP2JDEJb-xHG-UvWObpS-160" value="Store preferences" style="rounded=1;whiteSpace=wrap;html=1;" parent="1" vertex="1">
          <mxGeometry x="192" y="3750" width="120" height="60" as="geometry"/>
        </mxCell>
        <mxCell id="fP2JDEJb-xHG-UvWObpS-167" style="edgeStyle=orthogonalEdgeStyle;rounded=0;orthogonalLoop=1;jettySize=auto;html=1;exitX=0.5;exitY=1;exitDx=0;exitDy=0;entryX=0.5;entryY=0;entryDx=0;entryDy=0;" parent="1" source="fP2JDEJb-xHG-UvWObpS-161" target="fP2JDEJb-xHG-UvWObpS-162" edge="1">
          <mxGeometry relative="1" as="geometry"/>
        </mxCell>
        <mxCell id="fP2JDEJb-xHG-UvWObpS-186" style="edgeStyle=orthogonalEdgeStyle;rounded=0;orthogonalLoop=1;jettySize=auto;html=1;exitX=0.25;exitY=1;exitDx=0;exitDy=0;entryX=0.5;entryY=0;entryDx=0;entryDy=0;" parent="1" source="fP2JDEJb-xHG-UvWObpS-161" target="fP2JDEJb-xHG-UvWObpS-174" edge="1">
          <mxGeometry relative="1" as="geometry"/>
        </mxCell>
        <mxCell id="fP2JDEJb-xHG-UvWObpS-188" style="edgeStyle=orthogonalEdgeStyle;rounded=0;orthogonalLoop=1;jettySize=auto;html=1;exitX=0.75;exitY=1;exitDx=0;exitDy=0;entryX=0.5;entryY=0;entryDx=0;entryDy=0;" parent="1" source="fP2JDEJb-xHG-UvWObpS-161" target="fP2JDEJb-xHG-UvWObpS-180" edge="1">
          <mxGeometry relative="1" as="geometry"/>
        </mxCell>
        <mxCell id="_xfbIV2_GkmlUteq1tt2-7" style="edgeStyle=orthogonalEdgeStyle;rounded=0;orthogonalLoop=1;jettySize=auto;html=1;exitX=1;exitY=0.5;exitDx=0;exitDy=0;entryX=0;entryY=0.5;entryDx=0;entryDy=0;" edge="1" parent="1" source="fP2JDEJb-xHG-UvWObpS-161" target="fP2JDEJb-xHG-UvWObpS-208">
          <mxGeometry relative="1" as="geometry">
            <mxPoint x="360" y="3936" as="targetPoint"/>
          </mxGeometry>
        </mxCell>
        <mxCell id="fP2JDEJb-xHG-UvWObpS-161" value="Loop 15&lt;br&gt;Determines which team gets preferences" style="rounded=1;whiteSpace=wrap;html=1;" parent="1" vertex="1">
          <mxGeometry x="10.75" y="3906" width="120" height="60" as="geometry"/>
        </mxCell>
        <mxCell id="fP2JDEJb-xHG-UvWObpS-182" style="edgeStyle=orthogonalEdgeStyle;rounded=0;orthogonalLoop=1;jettySize=auto;html=1;exitX=0.5;exitY=1;exitDx=0;exitDy=0;entryX=0.5;entryY=0;entryDx=0;entryDy=0;" parent="1" source="fP2JDEJb-xHG-UvWObpS-162" target="fP2JDEJb-xHG-UvWObpS-164" edge="1">
          <mxGeometry relative="1" as="geometry"/>
        </mxCell>
        <mxCell id="fP2JDEJb-xHG-UvWObpS-162" value="If both have preferences that are not the same" style="rounded=1;whiteSpace=wrap;html=1;" parent="1" vertex="1">
          <mxGeometry x="10.75" y="4014" width="120" height="60" as="geometry"/>
        </mxCell>
        <mxCell id="fP2JDEJb-xHG-UvWObpS-184" style="edgeStyle=orthogonalEdgeStyle;rounded=0;orthogonalLoop=1;jettySize=auto;html=1;exitX=0.5;exitY=1;exitDx=0;exitDy=0;entryX=0.5;entryY=0;entryDx=0;entryDy=0;" parent="1" source="fP2JDEJb-xHG-UvWObpS-164" target="fP2JDEJb-xHG-UvWObpS-165" edge="1">
          <mxGeometry relative="1" as="geometry"/>
        </mxCell>
        <mxCell id="fP2JDEJb-xHG-UvWObpS-164" value="Randomly select which gets it" style="rounded=1;whiteSpace=wrap;html=1;" parent="1" vertex="1">
          <mxGeometry x="10.75" y="4122" width="120" height="60" as="geometry"/>
        </mxCell>
        <mxCell id="_xfbIV2_GkmlUteq1tt2-2" style="edgeStyle=orthogonalEdgeStyle;rounded=0;orthogonalLoop=1;jettySize=auto;html=1;exitX=0.5;exitY=1;exitDx=0;exitDy=0;entryX=0.5;entryY=1;entryDx=0;entryDy=0;" edge="1" parent="1" source="fP2JDEJb-xHG-UvWObpS-165" target="fP2JDEJb-xHG-UvWObpS-190">
          <mxGeometry relative="1" as="geometry"/>
        </mxCell>
        <mxCell id="fP2JDEJb-xHG-UvWObpS-165" value="Set match a to be that time" style="rounded=1;whiteSpace=wrap;html=1;" parent="1" vertex="1">
          <mxGeometry x="10.75" y="4239" width="120" height="60" as="geometry"/>
        </mxCell>
        <mxCell id="fP2JDEJb-xHG-UvWObpS-172" style="edgeStyle=orthogonalEdgeStyle;rounded=0;orthogonalLoop=1;jettySize=auto;html=1;exitX=0.5;exitY=1;exitDx=0;exitDy=0;entryX=0.5;entryY=0;entryDx=0;entryDy=0;" parent="1" source="fP2JDEJb-xHG-UvWObpS-169" target="fP2JDEJb-xHG-UvWObpS-161" edge="1">
          <mxGeometry relative="1" as="geometry"/>
        </mxCell>
        <mxCell id="fP2JDEJb-xHG-UvWObpS-169" value="creates 2d array [a] [b]" style="rounded=1;whiteSpace=wrap;html=1;" parent="1" vertex="1">
          <mxGeometry x="10.75" y="3750" width="120" height="60" as="geometry"/>
        </mxCell>
        <mxCell id="fP2JDEJb-xHG-UvWObpS-187" style="edgeStyle=orthogonalEdgeStyle;rounded=0;orthogonalLoop=1;jettySize=auto;html=1;exitX=0.5;exitY=1;exitDx=0;exitDy=0;entryX=0.5;entryY=0;entryDx=0;entryDy=0;" parent="1" source="fP2JDEJb-xHG-UvWObpS-174" target="fP2JDEJb-xHG-UvWObpS-175" edge="1">
          <mxGeometry relative="1" as="geometry"/>
        </mxCell>
        <mxCell id="fP2JDEJb-xHG-UvWObpS-174" value="If both have preferences that are same" style="rounded=1;whiteSpace=wrap;html=1;" parent="1" vertex="1">
          <mxGeometry x="-152.75" y="4013.999411764706" width="120" height="60" as="geometry"/>
        </mxCell>
        <mxCell id="_xfbIV2_GkmlUteq1tt2-1" style="edgeStyle=orthogonalEdgeStyle;rounded=0;orthogonalLoop=1;jettySize=auto;html=1;exitX=0.5;exitY=1;exitDx=0;exitDy=0;entryX=0.25;entryY=1;entryDx=0;entryDy=0;" edge="1" parent="1" source="fP2JDEJb-xHG-UvWObpS-175" target="fP2JDEJb-xHG-UvWObpS-190">
          <mxGeometry relative="1" as="geometry"/>
        </mxCell>
        <mxCell id="fP2JDEJb-xHG-UvWObpS-175" value="Set match to be that time" style="rounded=1;whiteSpace=wrap;html=1;" parent="1" vertex="1">
          <mxGeometry x="-152.75" y="4122" width="120" height="60" as="geometry"/>
        </mxCell>
        <mxCell id="fP2JDEJb-xHG-UvWObpS-180" value="No preference set&lt;br&gt;to 0" style="rounded=1;whiteSpace=wrap;html=1;" parent="1" vertex="1">
          <mxGeometry x="160.00000000000003" y="4014" width="120" height="60" as="geometry"/>
        </mxCell>
        <mxCell id="fP2JDEJb-xHG-UvWObpS-192" style="edgeStyle=orthogonalEdgeStyle;rounded=0;orthogonalLoop=1;jettySize=auto;html=1;exitX=0.5;exitY=0;exitDx=0;exitDy=0;entryX=0.25;entryY=0;entryDx=0;entryDy=0;" parent="1" source="fP2JDEJb-xHG-UvWObpS-190" target="fP2JDEJb-xHG-UvWObpS-161" edge="1">
          <mxGeometry relative="1" as="geometry"/>
        </mxCell>
        <mxCell id="fP2JDEJb-xHG-UvWObpS-190" value="Loop" style="rounded=1;whiteSpace=wrap;html=1;" parent="1" vertex="1">
          <mxGeometry x="-261" y="3906" width="120" height="60" as="geometry"/>
        </mxCell>
        <mxCell id="fP2JDEJb-xHG-UvWObpS-201" style="edgeStyle=orthogonalEdgeStyle;rounded=0;orthogonalLoop=1;jettySize=auto;html=1;exitX=0.5;exitY=1;exitDx=0;exitDy=0;entryX=0.5;entryY=0;entryDx=0;entryDy=0;" parent="1" source="fP2JDEJb-xHG-UvWObpS-193" target="fP2JDEJb-xHG-UvWObpS-194" edge="1">
          <mxGeometry relative="1" as="geometry"/>
        </mxCell>
        <mxCell id="fP2JDEJb-xHG-UvWObpS-193" value="If match preference o and 1 are the same" style="rounded=1;whiteSpace=wrap;html=1;" parent="1" vertex="1">
          <mxGeometry x="738" y="4059" width="120" height="60" as="geometry"/>
        </mxCell>
        <mxCell id="fP2JDEJb-xHG-UvWObpS-202" style="edgeStyle=orthogonalEdgeStyle;rounded=0;orthogonalLoop=1;jettySize=auto;html=1;exitX=0.5;exitY=1;exitDx=0;exitDy=0;entryX=0.5;entryY=0;entryDx=0;entryDy=0;" parent="1" source="fP2JDEJb-xHG-UvWObpS-194" target="fP2JDEJb-xHG-UvWObpS-195" edge="1">
          <mxGeometry relative="1" as="geometry"/>
        </mxCell>
        <mxCell id="fP2JDEJb-xHG-UvWObpS-194" value="Randomly select one team to get the time" style="rounded=1;whiteSpace=wrap;html=1;" parent="1" vertex="1">
          <mxGeometry x="738" y="4176" width="120" height="60" as="geometry"/>
        </mxCell>
        <mxCell id="fP2JDEJb-xHG-UvWObpS-195" value="Set other team to be non preferred time" style="rounded=1;whiteSpace=wrap;html=1;" parent="1" vertex="1">
          <mxGeometry x="738" y="4284" width="120" height="60" as="geometry"/>
        </mxCell>
        <mxCell id="fP2JDEJb-xHG-UvWObpS-199" style="edgeStyle=orthogonalEdgeStyle;rounded=0;orthogonalLoop=1;jettySize=auto;html=1;exitX=0.5;exitY=1;exitDx=0;exitDy=0;entryX=0.5;entryY=0;entryDx=0;entryDy=0;" parent="1" source="fP2JDEJb-xHG-UvWObpS-196" target="fP2JDEJb-xHG-UvWObpS-197" edge="1">
          <mxGeometry relative="1" as="geometry"/>
        </mxCell>
        <mxCell id="fP2JDEJb-xHG-UvWObpS-196" value="If both match preference are 0" style="rounded=1;whiteSpace=wrap;html=1;" parent="1" vertex="1">
          <mxGeometry x="558" y="4059" width="120" height="60" as="geometry"/>
        </mxCell>
        <mxCell id="fP2JDEJb-xHG-UvWObpS-200" style="edgeStyle=orthogonalEdgeStyle;rounded=0;orthogonalLoop=1;jettySize=auto;html=1;exitX=0.5;exitY=1;exitDx=0;exitDy=0;entryX=0.5;entryY=0;entryDx=0;entryDy=0;" parent="1" source="fP2JDEJb-xHG-UvWObpS-197" target="fP2JDEJb-xHG-UvWObpS-198" edge="1">
          <mxGeometry relative="1" as="geometry"/>
        </mxCell>
        <mxCell id="fP2JDEJb-xHG-UvWObpS-197" value="Randomly select time for 1 match" style="rounded=1;whiteSpace=wrap;html=1;" parent="1" vertex="1">
          <mxGeometry x="558" y="4176" width="120" height="60" as="geometry"/>
        </mxCell>
        <mxCell id="fP2JDEJb-xHG-UvWObpS-198" value="Set on selected time/ team on other match" style="rounded=1;whiteSpace=wrap;html=1;" parent="1" vertex="1">
          <mxGeometry x="558" y="4284" width="120" height="60" as="geometry"/>
        </mxCell>
        <mxCell id="fP2JDEJb-xHG-UvWObpS-205" style="edgeStyle=orthogonalEdgeStyle;rounded=0;orthogonalLoop=1;jettySize=auto;html=1;" parent="1" source="fP2JDEJb-xHG-UvWObpS-204" target="fP2JDEJb-xHG-UvWObpS-206" edge="1">
          <mxGeometry relative="1" as="geometry">
            <mxPoint x="447" y="4185" as="targetPoint"/>
          </mxGeometry>
        </mxCell>
        <mxCell id="fP2JDEJb-xHG-UvWObpS-204" value="Else&lt;br&gt;Do nothing" style="rounded=1;whiteSpace=wrap;html=1;" parent="1" vertex="1">
          <mxGeometry x="387" y="4059" width="120" height="60" as="geometry"/>
        </mxCell>
        <mxCell id="fP2JDEJb-xHG-UvWObpS-206" value="They both get preferred time" style="rounded=1;whiteSpace=wrap;html=1;" parent="1" vertex="1">
          <mxGeometry x="387" y="4176" width="120" height="60" as="geometry"/>
        </mxCell>
        <mxCell id="fP2JDEJb-xHG-UvWObpS-209" style="edgeStyle=orthogonalEdgeStyle;rounded=0;orthogonalLoop=1;jettySize=auto;html=1;exitX=0.75;exitY=1;exitDx=0;exitDy=0;entryX=0.5;entryY=0;entryDx=0;entryDy=0;" parent="1" source="fP2JDEJb-xHG-UvWObpS-208" target="fP2JDEJb-xHG-UvWObpS-193" edge="1">
          <mxGeometry relative="1" as="geometry"/>
        </mxCell>
        <mxCell id="fP2JDEJb-xHG-UvWObpS-210" style="edgeStyle=orthogonalEdgeStyle;rounded=0;orthogonalLoop=1;jettySize=auto;html=1;exitX=0.5;exitY=1;exitDx=0;exitDy=0;entryX=0.5;entryY=0;entryDx=0;entryDy=0;" parent="1" source="fP2JDEJb-xHG-UvWObpS-208" target="fP2JDEJb-xHG-UvWObpS-196" edge="1">
          <mxGeometry relative="1" as="geometry"/>
        </mxCell>
        <mxCell id="fP2JDEJb-xHG-UvWObpS-211" style="edgeStyle=orthogonalEdgeStyle;rounded=0;orthogonalLoop=1;jettySize=auto;html=1;exitX=0.25;exitY=1;exitDx=0;exitDy=0;entryX=0.5;entryY=0;entryDx=0;entryDy=0;" parent="1" source="fP2JDEJb-xHG-UvWObpS-208" target="fP2JDEJb-xHG-UvWObpS-204" edge="1">
          <mxGeometry relative="1" as="geometry"/>
        </mxCell>
        <mxCell id="fP2JDEJb-xHG-UvWObpS-208" value="Setting team for matches" style="rounded=1;whiteSpace=wrap;html=1;" parent="1" vertex="1">
          <mxGeometry x="558" y="3915" width="120" height="60" as="geometry"/>
        </mxCell>
        <mxCell id="_xfbIV2_GkmlUteq1tt2-4" value="" style="endArrow=none;html=1;entryX=0.5;entryY=1;entryDx=0;entryDy=0;" edge="1" parent="1" target="fP2JDEJb-xHG-UvWObpS-180">
          <mxGeometry width="50" height="50" relative="1" as="geometry">
            <mxPoint x="220" y="4320" as="sourcePoint"/>
            <mxPoint x="248" y="4077" as="targetPoint"/>
          </mxGeometry>
        </mxCell>
        <mxCell id="_xfbIV2_GkmlUteq1tt2-5" value="" style="endArrow=none;html=1;" edge="1" parent="1">
          <mxGeometry width="50" height="50" relative="1" as="geometry">
            <mxPoint x="-198" y="4320" as="sourcePoint"/>
            <mxPoint x="219" y="4320" as="targetPoint"/>
          </mxGeometry>
        </mxCell>
        <mxCell id="_xfbIV2_GkmlUteq1tt2-6" value="" style="endArrow=classic;html=1;entryX=0.75;entryY=1;entryDx=0;entryDy=0;" edge="1" parent="1" target="fP2JDEJb-xHG-UvWObpS-190">
          <mxGeometry width="50" height="50" relative="1" as="geometry">
            <mxPoint x="-171" y="4316" as="sourcePoint"/>
            <mxPoint x="-148" y="4266" as="targetPoint"/>
          </mxGeometry>
        </mxCell>
        <mxCell id="_xfbIV2_GkmlUteq1tt2-8" value="After Loops" style="text;html=1;strokeColor=none;fillColor=none;align=center;verticalAlign=middle;whiteSpace=wrap;rounded=0;" vertex="1" parent="1">
          <mxGeometry x="207" y="3915" width="81" height="20" as="geometry"/>
        </mxCell>
        <mxCell id="_xfbIV2_GkmlUteq1tt2-11" value="" style="endArrow=none;html=1;" edge="1" parent="1">
          <mxGeometry width="50" height="50" relative="1" as="geometry">
            <mxPoint x="-180" y="963" as="sourcePoint"/>
            <mxPoint x="-90" y="963" as="targetPoint"/>
          </mxGeometry>
        </mxCell>
        <mxCell id="_xfbIV2_GkmlUteq1tt2-12" value="" style="endArrow=none;html=1;" edge="1" parent="1">
          <mxGeometry width="50" height="50" relative="1" as="geometry">
            <mxPoint x="-180" y="1098" as="sourcePoint"/>
            <mxPoint x="-180" y="963" as="targetPoint"/>
          </mxGeometry>
        </mxCell>
        <mxCell id="_xfbIV2_GkmlUteq1tt2-13" value="" style="endArrow=none;html=1;entryX=0;entryY=0.5;entryDx=0;entryDy=0;" edge="1" parent="1" target="ln4YnRmYRfvOp8-9dpnj-71">
          <mxGeometry width="50" height="50" relative="1" as="geometry">
            <mxPoint x="-180" y="1094" as="sourcePoint"/>
            <mxPoint x="-202" y="1116" as="targetPoint"/>
          </mxGeometry>
        </mxCell>
        <mxCell id="_xfbIV2_GkmlUteq1tt2-14" value="Display Information" style="rounded=1;whiteSpace=wrap;html=1;" vertex="1" parent="1">
          <mxGeometry x="639" y="378" width="120" height="60" as="geometry"/>
        </mxCell>
        <mxCell id="_xfbIV2_GkmlUteq1tt2-16" value="See Pseudo Code" style="rounded=1;whiteSpace=wrap;html=1;" vertex="1" parent="1">
          <mxGeometry x="-10" y="4446" width="120" height="60" as="geometry"/>
        </mxCell>
      </root>
    </mxGraphModel>
  </diagram>
</mxfile>
